<svg width="139" height="19" viewBox="0 0 139 19" fill="none" xmlns="http://www.w3.org/2000/svg">
<path d="M13.976 18H19.208L15.272 11.88C17.408 11.064 18.632 9.456 18.632 6.864C18.632 3.432 16.112 1.2 11.456 1.2H0.44V18H5.216V12.528H10.568L13.976 18ZM5.216 4.608H11.312C13.52 4.608 13.784 6.072 13.784 6.864C13.784 7.656 13.496 9.144 11.312 9.144H5.216V4.608ZM34.2986 12.552C34.6826 7.032 30.6506 4.848 26.9066 4.848C23.2346 4.848 19.2266 6.768 19.2266 11.592C19.2266 16.416 23.2346 18.336 26.9066 18.336C30.1466 18.336 33.2906 17.064 34.1066 13.656H30.2666C29.7386 14.664 28.7786 15.384 26.9066 15.384C24.6986 15.384 23.5226 14.184 23.1866 12.552H34.2986ZM26.9066 7.8C28.8506 7.8 29.8586 8.712 30.2666 10.056H23.3546C23.8346 8.736 24.9866 7.8 26.9066 7.8ZM44.5865 3.48V0.48C43.6985 0.36 42.9785 0.287999 41.9945 0.287999C37.3385 0.287999 36.7145 2.664 36.7145 5.208H34.6025V7.92H36.7145V18H41.0345V7.92H44.3705V5.208H41.0345C41.0345 3.432 42.4265 3.24 44.5865 3.48ZM59.6711 12.552C60.0551 7.032 56.0231 4.848 52.2791 4.848C48.6071 4.848 44.5991 6.768 44.5991 11.592C44.5991 16.416 48.6071 18.336 52.2791 18.336C55.5191 18.336 58.6631 17.064 59.4791 13.656H55.6391C55.1111 14.664 54.1511 15.384 52.2791 15.384C50.0711 15.384 48.8951 14.184 48.5591 12.552H59.6711ZM52.2791 7.8C54.2231 7.8 55.2311 8.712 55.6391 10.056H48.7271C49.2071 8.736 50.3591 7.8 52.2791 7.8ZM69.9534 4.848C67.2414 4.848 65.7534 6.552 65.2494 7.416V5.208H60.9294V18H65.2494V12.096C65.2494 10.104 66.3054 8.448 69.0414 8.448C70.1694 8.448 71.1054 8.712 71.5854 8.952H71.8494V5.064C71.4654 4.944 70.7934 4.848 69.9534 4.848ZM90.3148 4.848C87.8188 4.848 86.0908 6.6 85.7548 7.128C84.9868 5.688 83.4028 4.848 81.1708 4.848C78.9868 4.848 77.6188 6.216 77.1388 6.96V5.208H72.8188V18H77.1388V10.488C77.1388 8.688 78.2668 7.992 79.6108 7.992C80.9308 7.992 81.9628 8.616 81.9628 10.488V18H86.2828V10.488C86.2828 8.688 87.4348 7.992 88.7548 7.992C90.0748 7.992 91.1068 8.616 91.1068 10.488V18H95.4508V9.528C95.4508 6.648 93.6028 4.848 90.3148 4.848ZM103.994 4.848C100.298 4.848 97.634 5.952 97.274 9.096H101.138C101.306 8.28 101.882 7.584 103.994 7.584C106.586 7.584 106.898 8.664 106.898 9.912V10.224C97.946 9.576 96.65 11.952 96.65 14.64C96.65 17.136 98.954 18.336 101.954 18.336C104.834 18.336 106.418 17.04 106.898 16.272V18H111.218V9.912C111.218 5.616 107.666 4.848 103.994 4.848ZM106.898 14.16C106.178 15.168 104.858 15.936 103.154 15.936C101.666 15.936 100.85 15.36 100.85 14.448C100.85 12.648 102.842 12.48 106.898 12.672V14.16ZM122.372 7.92V5.208H118.628V1.872H114.308V5.208H111.932V7.92H114.308V12.984C114.308 16.2 115.076 18.192 119.804 18.192C120.812 18.192 121.484 18.12 122.372 18V14.712C119.54 15.072 118.628 14.736 118.628 12.984V7.92H122.372ZM137.938 12.552C138.322 7.032 134.29 4.848 130.546 4.848C126.874 4.848 122.866 6.768 122.866 11.592C122.866 16.416 126.874 18.336 130.546 18.336C133.786 18.336 136.93 17.064 137.746 13.656H133.906C133.378 14.664 132.418 15.384 130.546 15.384C128.338 15.384 127.162 14.184 126.826 12.552H137.938ZM130.546 7.8C132.49 7.8 133.498 8.712 133.906 10.056H126.994C127.474 8.736 128.626 7.8 130.546 7.8Z" fill="black"/>
</svg>
